# File created by Blade
# Date/Time:  Wed Jan 21 16:02:01 2015
# Frame Rate: 120.000 fps
#------------------------------------------------------
:FULLY-SPECIFIED
:DEGREES
1363
root 17.937953 32.670047 -16.683109 -171.139504 4.129513 -177.818347
Spine -15.599395 8.046838 17.478849
Head 10.444501 0.804911 -18.390999
LeftShoulder -11.641770 -28.465620 -4.532393
LeftArm -37.096612 -10.986821 -57.746030
LeftForeArm 4.079494 -0.000000 8.058762
LeftHand -1.841749 -0.000000 2.458443
LeftHandThumb1 -26.253704 0.000000 33.147579
RightShoulder -9.717876 17.195194 -41.162480
RightArm 41.231593 50.651114 -9.031436
RightForeArm -43.194762 0.000000 17.064401
RightHand -2.439455 0.000000 -25.205370
RightHandThumb1 -24.326973 -0.000000 -32.862282
LeftUpLeg 10.075115 2.232826 -19.673945
LeftLeg -1.543244 -0.000000 0.000000
LeftFoot -32.025418 17.215587 -14.534143
LeftToeBase 19.798498 -0.000000 -0.000000
RightUpLeg -21.942060 11.659622 19.692305
RightLeg -2.302399 -0.000000 0.000000
RightFoot -0.037111 -34.070258 -4.190543
RightToeBase 16.617946 -0.000000 -0.000000
1364
root 17.947399 32.670522 -16.685654 -171.154279 4.100143 -177.841531
Spine -15.609847 8.023225 17.424237
Head 10.520155 0.799955 -18.410099
LeftShoulder -11.665704 -28.461622 -4.514991
LeftArm -37.104701 -11.002150 -57.700722
LeftForeArm 4.194933 -0.000000 8.174002
LeftHand -2.008146 -0.000000 2.385708
LeftHandThumb1 -26.253704 0.000000 33.147579
RightShoulder -9.710378 17.185954 -41.156825
RightArm 41.389420 50.650148 -8.949144
RightForeArm -43.207966 -0.000000 16.989399
RightHand -2.454173 -0.000000 -25.141893
RightHandThumb1 -24.326973 -0.000000 -32.862282
LeftUpLeg 10.092545 2.248691 -19.670269
LeftLeg -1.531350 -0.000000 0.000000
LeftFoot -32.013304 17.191239 -14.510442
LeftToeBase 19.726216 -0.000000 -0.000000
RightUpLeg -21.934900 11.661094 19.683141
RightLeg -2.300950 -0.000000 0.000000
RightFoot 0.004796 -34.151515 -4.233669
RightToeBase 16.674392 -0.000000 -0.000000
1365
root 17.955362 32.671113 -16.688519 -171.163737 4.060031 -177.866664
Spine -15.638210 8.011177 17.370333
Head 10.616195 0.778478 -18.430383
LeftShoulder -11.679253 -28.445384 -4.505487
LeftArm -37.088942 -11.020036 -57.680096
LeftForeArm 4.265604 -0.000000 8.203044
LeftHand -1.996658 -0.000000 2.379278
LeftHandThumb1 -26.253704 0.000000 33.147579
RightShoulder -9.695656 17.170746 -41.178986
RightArm 41.475910 50.639580 -8.882335
RightForeArm -43.205076 -0.000000 16.998404
RightHand -2.462837 -0.000000 -25.150848
RightHandThumb1 -24.326973 -0.000000 -32.862282
LeftUpLeg 10.109470 2.230121 -19.674614
LeftLeg -1.523909 -0.000000 0.000000
LeftFoot -32.000521 17.182996 -14.494585
LeftToeBase 19.696214 -0.000000 -0.000000
RightUpLeg -21.933670 11.620287 19.667089
RightLeg -2.302020 -0.000000 0.000000
RightFoot -0.031776 -34.087913 -4.167748
RightToeBase 16.696246 -0.000000 -0.000000
1366
root 17.964672 32.671336 -16.692131 -171.173576 4.020605 -177.895022
Spine -15.669531 7.994284 17.300678
Head 10.717691 0.769027 -18.423576
LeftShoulder -11.677121 -28.455476 -4.493778
LeftArm -37.106089 -10.956389 -57.700758
LeftForeArm 4.182221 -0.000000 8.208734
LeftHand -1.885261 -0.000000 2.422843
LeftHandThumb1 -26.253704 0.000000 33.147579
RightShoulder -9.670809 17.152143 -41.171249
RightArm 41.577481 50.669666 -8.792156
RightForeArm -43.256916 -0.000000 16.999240
RightHand -2.381181 -0.000000 -25.079443
RightHandThumb1 -24.326973 -0.000000 -32.862282
LeftUpLeg 10.134668 2.190016 -19.681609
LeftLeg -1.528632 -0.000000 0.000000
LeftFoot -31.997899 17.187456 -14.491171
LeftToeBase 19.675021 -0.000000 -0.000000
RightUpLeg -21.919391 11.597859 19.660940
RightLeg -2.325444 -0.000000 0.000000
RightFoot 0.037474 -34.186724 -4.242983
RightToeBase 16.749381 -0.000000 -0.000000
1367
root 17.973277 32.671374 -16.695905 -171.171970 3.982073 -177.926619
Spine -15.722327 7.983466 17.225138
Head 10.825828 0.759546 -18.399186
LeftShoulder -11.696984 -28.468811 -4.466020
LeftArm -37.132193 -10.912008 -57.703565
LeftForeArm 4.135056 0.000000 8.247625
LeftHand -1.865851 -0.000000 2.198095
LeftHandThumb1 -26.253704 0.000000 33.147579
RightShoulder -9.645164 17.175219 -41.186138
RightArm 41.665424 50.630155 -8.702776
RightForeArm -43.277925 -0.000000 17.006773
RightHand -2.287653 0.000000 -25.072494
RightHandThumb1 -24.326973 -0.000000 -32.862282
LeftUpLeg 10.145627 2.171796 -19.689430
LeftLeg -1.527015 -0.000000 0.000000
LeftFoot -31.988772 17.181979 -14.468533
LeftToeBase 19.655513 -0.000000 -0.000000
RightUpLeg -21.917366 11.567737 19.635957
RightLeg -2.349366 -0.000000 0.000000
RightFoot 0.039349 -34.119994 -4.217439
RightToeBase 16.780143 -0.000000 -0.000000
